# xmcd
#
# Track frame offsets:
#	150
#	9227
#	20850
#	32565
#	43532
#	57980
#	68460
#	79592
#	90455
#	100122
#	107852
#	117000
#	131067
#	141985
#	150457
#
# Disc length: 2102 seconds
#
# Revision: 0
# Processed by: cddbd v1.4PL0 Copyright (c) Steve Scherf et al.
# Submitted via: dBpowerAMP V4.0
#
DISCID=b608340f
DTITLE=Don Reno - The Golden Guitar Of Don Reno
DYEAR=1999
DGENRE=Bluegrass
TTITLE0=Gray Eagle
TTITLE1=Polka On The Guitar
TTITLE2=Lady Hamlet
TTITLE3=Italian Waltz
TTITLE4=Guitar Medley In "G"
TTITLE5=Old Spinning Wheel In The Parlor
TTITLE6=Hot Rize Flower Medley
TTITLE7=Turkey In The Straw
TTITLE8=Rocking Alone In An Old Rocking Chair
TTITLE9=Dixie Medley
TTITLE10=Peacock Rag
TTITLE11=I Like Mountain Music
TTITLE12=Ranger's Waltz
TTITLE13=Train Medley
TTITLE14=Tarnation
EXTD=william hale
EXTT0=
EXTT1=
EXTT2=
EXTT3=
EXTT4=
EXTT5=
EXTT6=
EXTT7=
EXTT8=
EXTT9=
EXTT10=
EXTT11=
EXTT12=
EXTT13=
EXTT14=
PLAYORDER=
